TITLE ""
FILE "Step3_Track20.mp3" MP3
  TRACK 01 AUDIO
    TITLE "Step3_Track20_01"
    INDEX 01 00:00:00
  TRACK 02 AUDIO
    TITLE "Step3_Track20_02"
    INDEX 01 00:00:24
  TRACK 03 AUDIO
    TITLE "Step3_Track20_03"
    INDEX 01 00:01:51
  TRACK 04 AUDIO
    TITLE "Step3_Track20_04"
    INDEX 01 00:02:29
  TRACK 05 AUDIO
    TITLE "Step3_Track20_05"
    INDEX 01 00:03:28
  TRACK 06 AUDIO
    TITLE "Step3_Track20_06"
    INDEX 01 00:03:42
  TRACK 07 AUDIO
    TITLE "Step3_Track20_07"
    INDEX 01 00:06:15
  TRACK 08 AUDIO
    TITLE "Step3_Track20_08"
    INDEX 01 00:06:34
  TRACK 09 AUDIO
    TITLE "Step3_Track20_09"
    INDEX 01 00:07:28
  TRACK 10 AUDIO
    TITLE "Step3_Track20_10"
    INDEX 01 00:07:30
  TRACK 11 AUDIO
    TITLE "Step3_Track20_11"
    INDEX 01 00:09:50
  TRACK 12 AUDIO
    TITLE "Step3_Track20_12"
    INDEX 01 00:10:19
  TRACK 13 AUDIO
    TITLE "Step3_Track20_13"
    INDEX 01 00:11:10
  TRACK 14 AUDIO
    TITLE "Step3_Track20_14"
    INDEX 01 00:11:34
  TRACK 15 AUDIO
    TITLE "Step3_Track20_15"
    INDEX 01 00:14:32
  TRACK 16 AUDIO
    TITLE "Step3_Track20_16"
    INDEX 01 00:14:71
  TRACK 17 AUDIO
    TITLE "Step3_Track20_17"
    INDEX 01 00:15:63
  TRACK 18 AUDIO
    TITLE "Step3_Track20_18"
    INDEX 01 00:16:21
  TRACK 19 AUDIO
    TITLE "Step3_Track20_19"
    INDEX 01 00:18:28
  TRACK 20 AUDIO
    TITLE "Step3_Track20_20"
    INDEX 01 00:18:69
  TRACK 21 AUDIO
    TITLE "Step3_Track20_21"
    INDEX 01 00:19:63
  TRACK 22 AUDIO
    TITLE "Step3_Track20_22"
    INDEX 01 00:20:05
  TRACK 23 AUDIO
    TITLE "Step3_Track20_23"
    INDEX 01 00:22:49
  TRACK 24 AUDIO
    TITLE "Step3_Track20_24"
    INDEX 01 00:23:11
  TRACK 25 AUDIO
    TITLE "Step3_Track20_25"
    INDEX 01 00:24:13
  TRACK 26 AUDIO
    TITLE "Step3_Track20_26"
    INDEX 01 00:24:28
  TRACK 27 AUDIO
    TITLE "Step3_Track20_27"
    INDEX 01 00:27:13
  TRACK 28 AUDIO
    TITLE "Step3_Track20_28"
    INDEX 01 00:27:48
  TRACK 29 AUDIO
    TITLE "Step3_Track20_29"
    INDEX 01 00:28:52
  TRACK 30 AUDIO
    TITLE "Step3_Track20_30"
    INDEX 01 00:28:60
  TRACK 31 AUDIO
    TITLE "Step3_Track20_31"
    INDEX 01 00:31:52
  TRACK 32 AUDIO
    TITLE "Step3_Track20_32"
    INDEX 01 00:32:02
  TRACK 33 AUDIO
    TITLE "Step3_Track20_33"
    INDEX 01 00:32:65
  TRACK 34 AUDIO
    TITLE "Step3_Track20_34"
    INDEX 01 00:33:04
  TRACK 35 AUDIO
    TITLE "Step3_Track20_35"
    INDEX 01 00:36:06
  TRACK 36 AUDIO
    TITLE "Step3_Track20_36"
    INDEX 01 00:36:34
  TRACK 37 AUDIO
    TITLE "Step3_Track20_37"
    INDEX 01 00:37:37
  TRACK 38 AUDIO
    TITLE "Step3_Track20_38"
    INDEX 01 00:37:55
  TRACK 39 AUDIO
    TITLE "Step3_Track20_39"
    INDEX 01 00:40:24
  TRACK 40 AUDIO
    TITLE "Step3_Track20_40"
    INDEX 01 00:40:59
  TRACK 41 AUDIO
    TITLE "Step3_Track20_41"
    INDEX 01 00:41:56
  TRACK 42 AUDIO
    TITLE "Step3_Track20_42"
    INDEX 01 00:42:09
  TRACK 43 AUDIO
    TITLE "Step3_Track20_43"
    INDEX 01 00:44:35
